<?xml version="1.0" standalone="no"?>
<!DOCTYPE svg PUBLIC "-//W3C//DTD SVG 20010904//EN"
 "http://www.w3.org/TR/2001/REC-SVG-20010904/DTD/svg10.dtd">
<svg version="1.0" xmlns="http://www.w3.org/2000/svg"
 width="116.000000pt" height="113.000000pt" viewBox="0 0 116.000000 113.000000"
 preserveAspectRatio="xMidYMid meet">
<metadata>
Created by potrace 1.16, written by Peter Selinger 2001-2019
</metadata>
<g transform="translate(0.000000,113.000000) scale(0.100000,-0.100000)"
fill="#000000" stroke="none">
<path d="M273 948 c-20 -23 -133 -377 -133 -418 0 -11 12 -32 27 -46 26 -24
27 -24 47 -5 12 10 65 48 118 83 54 36 95 68 90 73 -4 4 -2 5 4 2 6 -3 57 25
115 63 57 39 97 71 89 71 -8 1 -2 4 13 8 26 5 15 14 -131 99 -171 99 -204 108
-239 70z"/>
<path d="M782 602 c-63 -23 -133 -70 -226 -153 -39 -34 -85 -68 -103 -75 -18
-8 -86 -19 -152 -24 -122 -10 -151 -16 -151 -31 0 -11 7 -11 46 0 l31 9 7 -67
c3 -36 6 -85 6 -107 0 -27 7 -51 21 -68 31 -39 70 -34 164 20 178 104 325 190
425 249 58 35 120 70 137 79 47 23 67 58 59 101 -6 28 -15 39 -49 56 -58 30
-148 35 -215 11z"/>
</g>
</svg>
