<?xml version="1.0" standalone="yes"?>
<svg xmlns="http://www.w3.org/2000/svg" width="180" height="180">
<path style="fill:#e14c5b; stroke:none;" d="M0 0L0 180L180 180L180 0L0 0z"/>
<path style="fill:#f3b5bc; stroke:none;" d="M35 26L35 124L35 148L36.6034 156.972L47 158L74 158L74 157L36 157L36 66C36 54.5799 39.4076 36.5038 35 26z"/>
<path style="fill:#f6c9ce; stroke:none;" d="M36 26L36 27L97 27L77 26L36 26z"/>
<path style="fill:#f3b5bc; stroke:none;" d="M97.6667 26.3333L98.3333 26.6667L97.6667 26.3333z"/>
<path style="fill:#ec8f98; stroke:none;" d="M99 26L99 27L104 27L99 26z"/>
<path style="fill:#fffefe; stroke:none;" d="M36 27L36 157L73 157C73 144.915 70.1221 128.696 73.3179 117.059C74.9006 111.295 85.0412 111.921 88.6103 115.318C99.1633 125.361 101.102 148.169 113.39 155.972C116.639 158.035 122.321 157 126 157L155 157L124 106C151.365 94.1901 156.981 50.6242 130 34.9545C104.28 20.0171 64.5588 27 36 27z"/>
<path style="fill:#f6c9ce; stroke:none;" d="M104 27L104 28L107 28L104 27z"/>
<path style="fill:#f3b5bc; stroke:none;" d="M107 27L108 28L107 27z"/>
<path style="fill:#ec8f98; stroke:none;" d="M108 27L108 28L111 28L108 27z"/>
<path style="fill:#f6c9ce; stroke:none;" d="M111 28L112 29L111 28z"/>
<path style="fill:#f3b5bc; stroke:none;" d="M112 28L113 29L112 28z"/>
<path style="fill:#ec8f98; stroke:none;" d="M113.667 28.3333L114.333 28.6667L113.667 28.3333z"/>
<path style="fill:#f6c9ce; stroke:none;" d="M115 29L116 30L115 29z"/>
<path style="fill:#f3b5bc; stroke:none;" d="M116 29L117 30L116 29z"/>
<path style="fill:#ec8f98; stroke:none;" d="M117.667 29.3333L118.333 29.6667L117.667 29.3333z"/>
<path style="fill:#f6c9ce; stroke:none;" d="M119 30L120 31L119 30z"/>
<path style="fill:#f3b5bc; stroke:none;" d="M120 30L121 31L120 30z"/>
<path style="fill:#ec8f98; stroke:none;" d="M121 30L122 31L121 30z"/>
<path style="fill:#f6c9ce; stroke:none;" d="M122 31L123 32L122 31z"/>
<path style="fill:#f3b5bc; stroke:none;" d="M123 31L124 32L123 31z"/>
<path style="fill:#ec8f98; stroke:none;" d="M124 31L125 32L124 31z"/>
<path style="fill:#f6c9ce; stroke:none;" d="M124 32L125 33L124 32z"/>
<path style="fill:#f3b5bc; stroke:none;" d="M125 32L126 33L125 32z"/>
<path style="fill:#ec8f98; stroke:none;" d="M126 32L127 33L126 32z"/>
<path style="fill:#f6c9ce; stroke:none;" d="M127 33L128 34L127 33z"/>
<path style="fill:#ec8f98; stroke:none;" d="M128 33L129 34L128 33z"/>
<path style="fill:#f3b5bc; stroke:none;" d="M129 34L130 35L129 34z"/>
<path style="fill:#ec8f98; stroke:none;" d="M130 34L131 35L130 34M131 35L132 36L131 35z"/>
<path style="fill:#f6c9ce; stroke:none;" d="M132 36L134 38L132 36z"/>
<path style="fill:#ec8f98; stroke:none;" d="M133 36L134 37L133 36M134 37L135 38L134 37M135 38L136 39L135 38z"/>
<path style="fill:#f3b5bc; stroke:none;" d="M136 39L137 40L136 39M137 40L138 41L137 40M138 41L139 42L138 41M139 42L140 43L139 42z"/>
<path style="fill:#ec8f98; stroke:none;" d="M140 43L141 44L140 43M141 44L143 46L141 44z"/>
<path style="fill:#f6c9ce; stroke:none;" d="M141 45L142 46L141 45z"/>
<path style="fill:#f3b5bc; stroke:none;" d="M142 46L143 47L142 46z"/>
<path style="fill:#ec8f98; stroke:none;" d="M143 47L144 48L143 47z"/>
<path style="fill:#f3b5bc; stroke:none;" d="M143 48L144 49L143 48z"/>
<path style="fill:#ec8f98; stroke:none;" d="M144 49L145 50L144 49z"/>
<path style="fill:#f3b5bc; stroke:none;" d="M144 50L145 51L144 50z"/>
<path style="fill:#ec8f98; stroke:none;" d="M145.333 51.6667L145.667 52.3333L145.333 51.6667z"/>
<path style="fill:#f6c9ce; stroke:none;" d="M74 53L73 86L74 86L74 53z"/>
<path style="fill:#f3b5bc; stroke:none;" d="M75 53L75 54L88 54L75 53z"/>
<path style="fill:#f6c9ce; stroke:none;" d="M88 53L88 54L95 54L88 53M145 53L146 54L145 53z"/>
<path style="fill:#e14c5b; stroke:none;" d="M74 54C74 60.8228 70.7514 78.9973 75.0278 84.3966C77.1206 87.039 83.0503 86.0576 86 85.9853C92.2179 85.833 99.9984 84.9279 104.811 80.6065C111.763 74.3635 111.926 61.3309 102.985 56.919C99.9478 55.4205 96.3566 54.5343 93 54.1736C86.766 53.5038 80.2661 54 74 54z"/>
<path style="fill:#ec8f98; stroke:none;" d="M95.6667 54.3333L96.3333 54.6667L95.6667 54.3333z"/>
<path style="fill:#f3b5bc; stroke:none;" d="M97 54L98 55L97 54z"/>
<path style="fill:#f6c9ce; stroke:none;" d="M98 54L99 55L98 54z"/>
<path style="fill:#ec8f98; stroke:none;" d="M146 54L147 55L146 54M99.6667 55.3333L100.333 55.6667L99.6667 55.3333z"/>
<path style="fill:#f3b5bc; stroke:none;" d="M101 55L102 56L101 55z"/>
<path style="fill:#f6c9ce; stroke:none;" d="M102 55L103 56L102 55z"/>
<path style="fill:#f3b5bc; stroke:none;" d="M146 55L147 56L146 55z"/>
<path style="fill:#ec8f98; stroke:none;" d="M102 56L103 57L102 56z"/>
<path style="fill:#f3b5bc; stroke:none;" d="M103 56L104 57L103 56z"/>
<path style="fill:#f6c9ce; stroke:none;" d="M104 56L105 57L104 56M146.333 56.6667L146.667 57.3333L146.333 56.6667z"/>
<path style="fill:#ec8f98; stroke:none;" d="M104 57L105 58L104 57z"/>
<path style="fill:#f3b5bc; stroke:none;" d="M105 57L106 58L105 57z"/>
<path style="fill:#ec8f98; stroke:none;" d="M106 58L107 59L106 58M147.333 58.6667L147.667 59.3333L147.333 58.6667M107 59L108 60L107 59z"/>
<path style="fill:#f6c9ce; stroke:none;" d="M108 60L109 61L108 60z"/>
<path style="fill:#f3b5bc; stroke:none;" d="M147.333 60.6667L147.667 61.3333L147.333 60.6667z"/>
<path style="fill:#ec8f98; stroke:none;" d="M108 61L109 62L108 61z"/>
<path style="fill:#f3b5bc; stroke:none;" d="M109 62L110 63L109 62z"/>
<path style="fill:#f6c9ce; stroke:none;" d="M147 62L147 75L148 75L147 62z"/>
<path style="fill:#ec8f98; stroke:none;" d="M109.333 63.6667L109.667 64.3333L109.333 63.6667z"/>
<path style="fill:#f6c9ce; stroke:none;" d="M110 65L110 73L111 73L110 65z"/>
<path style="fill:#ec8f98; stroke:none;" d="M148 66L148 71L149 71L148 66M109.333 72.6667L109.667 73.3333L109.333 72.6667z"/>
<path style="fill:#f3b5bc; stroke:none;" d="M109 74L110 75L109 74z"/>
<path style="fill:#f6c9ce; stroke:none;" d="M109 75L110 76L109 75z"/>
<path style="fill:#f3b5bc; stroke:none;" d="M147.333 75.6667L147.667 76.3333L147.333 75.6667z"/>
<path style="fill:#ec8f98; stroke:none;" d="M108 76L107 78L108 76z"/>
<path style="fill:#f6c9ce; stroke:none;" d="M108 77L109 78L108 77z"/>
<path style="fill:#ec8f98; stroke:none;" d="M147.333 77.6667L147.667 78.3333L147.333 77.6667z"/>
<path style="fill:#f3b5bc; stroke:none;" d="M107 78L108 79L107 78M106 79L107 80L106 79z"/>
<path style="fill:#f6c9ce; stroke:none;" d="M146.333 79.6667L146.667 80.3333L146.333 79.6667z"/>
<path style="fill:#ec8f98; stroke:none;" d="M105 80L106 81L105 80z"/>
<path style="fill:#f3b5bc; stroke:none;" d="M104 81L105 82L104 81z"/>
<path style="fill:#ec8f98; stroke:none;" d="M146.333 81.6667L146.667 82.3333L146.333 81.6667M102 82L103 83L102 82z"/>
<path style="fill:#f6c9ce; stroke:none;" d="M103 82L104 83L103 82M145.333 82.6667L145.667 83.3333L145.333 82.6667z"/>
<path style="fill:#ec8f98; stroke:none;" d="M100 83L101 84L100 83z"/>
<path style="fill:#f6c9ce; stroke:none;" d="M101 83L102 84L101 83z"/>
<path style="fill:#ec8f98; stroke:none;" d="M97 84L98 85L97 84z"/>
<path style="fill:#f3b5bc; stroke:none;" d="M98 84L99 85L98 84z"/>
<path style="fill:#f6c9ce; stroke:none;" d="M99 84L100 85L99 84z"/>
<path style="fill:#ec8f98; stroke:none;" d="M145.333 84.6667L145.667 85.3333L145.333 84.6667M74 85L75 86L74 85M91.6667 85.3333L92.3333 85.6667L91.6667 85.3333z"/>
<path style="fill:#f3b5bc; stroke:none;" d="M93.6667 85.3333L94.3333 85.6667L93.6667 85.3333z"/>
<path style="fill:#f6c9ce; stroke:none;" d="M95 85L96 86L95 85M75 86L75 87L90 87L75 86z"/>
<path style="fill:#f3b5bc; stroke:none;" d="M144 86L145 87L144 86z"/>
<path style="fill:#ec8f98; stroke:none;" d="M144 87L145 88L144 87z"/>
<path style="fill:#f3b5bc; stroke:none;" d="M143 88L144 89L143 88z"/>
<path style="fill:#ec8f98; stroke:none;" d="M143 89L144 90L143 89z"/>
<path style="fill:#f3b5bc; stroke:none;" d="M142 90L143 91L142 90z"/>
<path style="fill:#f6c9ce; stroke:none;" d="M141 91L142 92L141 91z"/>
<path style="fill:#ec8f98; stroke:none;" d="M141 92L142 93L141 92z"/>
<path style="fill:#f3b5bc; stroke:none;" d="M140 93L141 94L140 93z"/>
<path style="fill:#f6c9ce; stroke:none;" d="M139 94L140 95L139 94M138 95L134 100L138 95z"/>
<path style="fill:#ec8f98; stroke:none;" d="M138 96L139 97L138 96M137 97L138 98L137 97M136 98L137 99L136 98M135 99L136 100L135 99z"/>
<path style="fill:#f3b5bc; stroke:none;" d="M133 100L134 101L133 100z"/>
<path style="fill:#ec8f98; stroke:none;" d="M132 101L133 102L132 101z"/>
<path style="fill:#f6c9ce; stroke:none;" d="M130 102L131 103L130 102z"/>
<path style="fill:#ec8f98; stroke:none;" d="M131 102L132 103L131 102z"/>
<path style="fill:#f3b5bc; stroke:none;" d="M129 103L130 104L129 103z"/>
<path style="fill:#f6c9ce; stroke:none;" d="M127 104L128 105L127 104z"/>
<path style="fill:#ec8f98; stroke:none;" d="M128 104L129 105L128 104z"/>
<path style="fill:#f6c9ce; stroke:none;" d="M125 105L126 106L125 105z"/>
<path style="fill:#ec8f98; stroke:none;" d="M126 105L127 106L126 105z"/>
<path style="fill:#f3b5bc; stroke:none;" d="M124 106L125 107L124 106z"/>
<path style="fill:#f6c9ce; stroke:none;" d="M124 107L125 108L124 107z"/>
<path style="fill:#f3b5bc; stroke:none;" d="M125 108L126 109L125 108z"/>
<path style="fill:#ec8f98; stroke:none;" d="M126 109L127 110L126 109z"/>
<path style="fill:#f6c9ce; stroke:none;" d="M126 110L127 111L126 110z"/>
<path style="fill:#ec8f98; stroke:none;" d="M127 111L128 112L127 111M128 112L129 113L128 112z"/>
<path style="fill:#f3b5bc; stroke:none;" d="M74 113L74 114L88 114L74 113z"/>
<path style="fill:#f6c9ce; stroke:none;" d="M128 113L129 114L128 113M73 114L73 157L74 157C74 144.781 77.7105 125.226 73 114z"/>
<path style="fill:#f3b5bc; stroke:none;" d="M88 114L89 115L88 114z"/>
<path style="fill:#ec8f98; stroke:none;" d="M129 114L130 115L129 114M88 115L89 116L88 115z"/>
<path style="fill:#f6c9ce; stroke:none;" d="M89 115L90 116L89 115M129 115L130 116L129 115z"/>
<path style="fill:#f3b5bc; stroke:none;" d="M89 116L90 117L89 116M130 116L131 117L130 116z"/>
<path style="fill:#f6c9ce; stroke:none;" d="M90 117L91 118L90 117z"/>
<path style="fill:#ec8f98; stroke:none;" d="M131 117L132 118L131 117M90 118L91 119L90 118z"/>
<path style="fill:#f6c9ce; stroke:none;" d="M131 118L132 119L131 118M91 119L92 120L91 119z"/>
<path style="fill:#ec8f98; stroke:none;" d="M132 119L133 120L132 119M91 120L92 121L91 120M133 120L134 121L133 120z"/>
<path style="fill:#f3b5bc; stroke:none;" d="M92 121L93 122L92 121M133 121L134 122L133 121z"/>
<path style="fill:#f6c9ce; stroke:none;" d="M93 122L94 123L93 122z"/>
<path style="fill:#ec8f98; stroke:none;" d="M134 122L136 124L134 122M93 123L94 124L93 123z"/>
<path style="fill:#f6c9ce; stroke:none;" d="M134 123L135 124L134 123M94 124L95 125L94 124z"/>
<path style="fill:#f3b5bc; stroke:none;" d="M135 124L136 125L135 124z"/>
<path style="fill:#ec8f98; stroke:none;" d="M94 125L95 126L94 125M136 125L137 126L136 125z"/>
<path style="fill:#f3b5bc; stroke:none;" d="M95 126L96 127L95 126z"/>
<path style="fill:#f6c9ce; stroke:none;" d="M136 126L137 127L136 126z"/>
<path style="fill:#ec8f98; stroke:none;" d="M95 127L96 128L95 127M137 127L139 129L137 127z"/>
<path style="fill:#f3b5bc; stroke:none;" d="M96 128L97 129L96 128z"/>
<path style="fill:#f6c9ce; stroke:none;" d="M137 128L138 129L137 128z"/>
<path style="fill:#ec8f98; stroke:none;" d="M96 129L98 131L96 129z"/>
<path style="fill:#f6c9ce; stroke:none;" d="M97 129L98 130L97 129z"/>
<path style="fill:#f3b5bc; stroke:none;" d="M138 129L139 130L138 129z"/>
<path style="fill:#ec8f98; stroke:none;" d="M139 130L141 132L139 130z"/>
<path style="fill:#f6c9ce; stroke:none;" d="M98 131L99 132L98 131M139 131L140 132L139 131z"/>
<path style="fill:#ec8f98; stroke:none;" d="M98 132L99 133L98 132z"/>
<path style="fill:#f3b5bc; stroke:none;" d="M140 132L141 133L140 132z"/>
<path style="fill:#f6c9ce; stroke:none;" d="M99 133L100 134L99 133M140 133L142 135L140 133z"/>
<path style="fill:#ec8f98; stroke:none;" d="M141 133L142 134L141 133M99 134L100 135L99 134z"/>
<path style="fill:#f3b5bc; stroke:none;" d="M100 135L101 136L100 135z"/>
<path style="fill:#ec8f98; stroke:none;" d="M142 135L144 137L142 135M100 136L101 137L100 136z"/>
<path style="fill:#f6c9ce; stroke:none;" d="M101 136L102 137L101 136M142 136L143 137L142 136z"/>
<path style="fill:#f3b5bc; stroke:none;" d="M101 137L102 138L101 137M143 137L144 138L143 137z"/>
<path style="fill:#f6c9ce; stroke:none;" d="M102 138L103 139L102 138z"/>
<path style="fill:#ec8f98; stroke:none;" d="M144 138L145 139L144 138M102 139L103 140L102 139z"/>
<path style="fill:#f6c9ce; stroke:none;" d="M144 139L145 140L144 139M103 140L104 141L103 140z"/>
<path style="fill:#f3b5bc; stroke:none;" d="M145 140L146 141L145 140z"/>
<path style="fill:#ec8f98; stroke:none;" d="M103 141L104 142L103 141z"/>
<path style="fill:#f6c9ce; stroke:none;" d="M145 141L146 142L145 141z"/>
<path style="fill:#ec8f98; stroke:none;" d="M146 141L147 142L146 141z"/>
<path style="fill:#f3b5bc; stroke:none;" d="M104 142L105 143L104 142M146 142L147 143L146 142z"/>
<path style="fill:#ec8f98; stroke:none;" d="M104 143L105 144L104 143z"/>
<path style="fill:#f6c9ce; stroke:none;" d="M105 143L106 144L105 143z"/>
<path style="fill:#ec8f98; stroke:none;" d="M147 143L148 144L147 143z"/>
<path style="fill:#f3b5bc; stroke:none;" d="M105 144L106 145L105 144z"/>
<path style="fill:#f6c9ce; stroke:none;" d="M147 144L148 145L147 144z"/>
<path style="fill:#ec8f98; stroke:none;" d="M105 145L107 147L105 145z"/>
<path style="fill:#f6c9ce; stroke:none;" d="M106 145L107 146L106 145z"/>
<path style="fill:#f3b5bc; stroke:none;" d="M148 145L149 146L148 145z"/>
<path style="fill:#ec8f98; stroke:none;" d="M149 146L150 147L149 146z"/>
<path style="fill:#f3b5bc; stroke:none;" d="M107 147L108 148L107 147z"/>
<path style="fill:#f6c9ce; stroke:none;" d="M149 147L150 148L149 147z"/>
<path style="fill:#ec8f98; stroke:none;" d="M107 148L108 149L107 148M150 148L152 150L150 148z"/>
<path style="fill:#f3b5bc; stroke:none;" d="M108 149L109 150L108 149z"/>
<path style="fill:#f6c9ce; stroke:none;" d="M150 149L151 150L150 149z"/>
<path style="fill:#ec8f98; stroke:none;" d="M108 150L110 152L108 150z"/>
<path style="fill:#f6c9ce; stroke:none;" d="M109 150L110 151L109 150z"/>
<path style="fill:#f3b5bc; stroke:none;" d="M151 150L152 151L151 150z"/>
<path style="fill:#ec8f98; stroke:none;" d="M152 151L153 152L152 151z"/>
<path style="fill:#f6c9ce; stroke:none;" d="M110 152L111 153L110 152M152 152L153 153L152 152z"/>
<path style="fill:#ec8f98; stroke:none;" d="M110 153L111 154L110 153M153 153L155 155L153 153z"/>
<path style="fill:#f6c9ce; stroke:none;" d="M111 154L112 155L111 154M153 154L154 155L153 154z"/>
<path style="fill:#ec8f98; stroke:none;" d="M111 155L112 156L111 155z"/>
<path style="fill:#f6c9ce; stroke:none;" d="M154 155L155 156L154 155z"/>
<path style="fill:#f3b5bc; stroke:none;" d="M112 156L112 157L155 158L155 157L112 156z"/>
<path style="fill:#ec8f98; stroke:none;" d="M155.333 156.667L155.667 157.333L155.333 156.667M35 157L36 158L35 157M112 157L113 158L112 157z"/>
</svg>
